<svg xmlns="http://www.w3.org/2000/svg" xmlns:xlink="http://www.w3.org/1999/xlink" width="248.813" height="62.289" viewBox="0 0 248.813 62.289">
  <defs>
    <clipPath id="clip-path">
      <rect id="Retângulo_7076" data-name="Retângulo 7076" width="248.813" height="62.289" transform="translate(0 0.056)" fill="none"/>
    </clipPath>
  </defs>
  <g id="Grupo_20900" data-name="Grupo 20900" transform="translate(0 -0.057)">
    <g id="Grupo_17909" data-name="Grupo 17909" transform="translate(0 0)" clip-path="url(#clip-path)">
      <g id="Grupo_20902" data-name="Grupo 20902" transform="translate(-8.204 -5.088)">
        <g id="Grupo_20901" data-name="Grupo 20901">
          <path id="Caminho_10902" data-name="Caminho 10902" d="M44.314,17.711,55.4,17.7a2.334,2.334,0,0,1-.013,4.667l-12.649.027a3.741,3.741,0,0,1-3.267-5.673L45.806,5.775A2.333,2.333,0,0,1,49.849,8.1Z" transform="translate(5.72 12.792)" fill="#003771" fill-rule="evenodd"/>
          <path id="Caminho_10903" data-name="Caminho 10903" d="M28.7,10.783,23.162,1.172a2.333,2.333,0,0,0-4.036,2.343l6.3,10.973a3.741,3.741,0,0,0,6.545-.008L38.284,3.523a2.332,2.332,0,0,0-4.037-2.337Z" transform="translate(11.658 14.144)" fill="#003771" fill-rule="evenodd"/>
          <path id="Caminho_10904" data-name="Caminho 10904" d="M13.469,17.753,2.378,17.742a2.333,2.333,0,0,0,.012,4.666l12.652.027a3.742,3.742,0,0,0,3.267-5.672L11.977,5.82A2.332,2.332,0,0,0,7.934,8.148Z" transform="translate(17.187 12.779)" fill="#003771" fill-rule="evenodd"/>
          <path id="Caminho_10905" data-name="Caminho 10905" d="M13.413,37.175l-5.554,9.6A2.333,2.333,0,0,0,11.905,49.1l6.347-10.944a3.743,3.743,0,0,0-3.277-5.668L2.333,32.5a2.332,2.332,0,0,0,0,4.664Z" transform="translate(17.205 4.564)" fill="#003771" fill-rule="evenodd"/>
          <path id="Caminho_10906" data-name="Caminho 10906" d="M44.32,37.167l5.555,9.6a2.333,2.333,0,0,1-4.047,2.323L39.479,38.147a3.743,3.743,0,0,1,3.279-5.668L55.4,32.49a2.333,2.333,0,0,1,0,4.666Z" transform="translate(5.716 4.566)" fill="#003771" fill-rule="evenodd"/>
          <path id="Caminho_10907" data-name="Caminho 10907" d="M28.628,44.755l5.535,9.61A2.333,2.333,0,0,0,38.2,52.023L31.9,41.052a3.741,3.741,0,0,0-6.546.007L19.04,52.014a2.333,2.333,0,0,0,4.038,2.337Z" transform="translate(11.689 2.606)" fill="#003771" fill-rule="evenodd"/>
          <path id="Caminho_10908" data-name="Caminho 10908" d="M85.77,43.465a.841.841,0,0,1-.8.637H80.8a.851.851,0,0,1-.835-.637l-6.6-19.533a.423.423,0,0,1-.04-.2c0-.28.16-.519.4-.519H76.1c.4,0,.516.24.595.519l5.65,18.059h1.034l5.092-18.059a.658.658,0,0,1,.677-.519h2.467a.459.459,0,0,1,.476.476v.12Z" transform="translate(-0.13 -0.041)" fill="#161615"/>
          <path id="Caminho_10909" data-name="Caminho 10909" d="M98.857,19.619h-1.95a.556.556,0,0,1-.6-.557v-4.3a.564.564,0,0,1,.6-.595h1.95a.563.563,0,0,1,.6.595v4.3a.554.554,0,0,1-.6.557m0,24.466h-1.95a.566.566,0,0,1-.6-.6V23.795a.564.564,0,0,1,.6-.595h1.95a.563.563,0,0,1,.6.595V43.487a.565.565,0,0,1-.6.6" transform="translate(-0.171 -0.025)" fill="#161615"/>
          <path id="Caminho_10910" data-name="Caminho 10910" d="M112,44.616a20.707,20.707,0,0,1-7.042-1.352c-.158-.081-.318-.159-.318-.4v-.119l.4-1.55a.4.4,0,0,1,.437-.359h.2a19.805,19.805,0,0,0,6.4,1.155c3.383,0,5.331-1.074,5.331-3.5,0-3.3-2.547-3.184-5.649-3.66-1.95-.318-6.921-.676-6.921-5.927,0-5.131,4.574-6.2,8.076-6.2a25.466,25.466,0,0,1,6.483.836.429.429,0,0,1,.4.437v.079l-.277,1.753a.346.346,0,0,1-.358.318h-.08a35.291,35.291,0,0,0-5.847-.759c-2.865,0-5.253.8-5.253,3.3,0,2.7,2.706,3.022,5.172,3.34,3.581.477,7.439.756,7.439,6.166,0,5.172-3.978,6.444-8.593,6.444" transform="translate(-0.186 -0.041)" fill="#161615"/>
          <path id="Caminho_10911" data-name="Caminho 10911" d="M128.107,19.619h-1.951a.554.554,0,0,1-.6-.557v-4.3a.562.562,0,0,1,.6-.595h1.951a.562.562,0,0,1,.6.595v4.3a.554.554,0,0,1-.6.557m0,24.466h-1.951a.564.564,0,0,1-.6-.6V23.795a.562.562,0,0,1,.6-.595h1.951a.562.562,0,0,1,.6.595V43.487a.564.564,0,0,1-.6.6" transform="translate(-0.223 -0.025)" fill="#161615"/>
          <path id="Caminho_10912" data-name="Caminho 10912" d="M143.159,44.617c-8.315,0-9.309-4.973-9.309-10.94,0-6.007.994-10.979,9.309-10.979,8.353,0,9.306,4.971,9.306,10.979,0,5.966-.953,10.94-9.306,10.94m0-19.374c-5.77,0-6.007,3.383-6.007,8.434,0,5.013.238,8.393,6.007,8.393s6.006-3.38,6.006-8.393c0-5.051-.239-8.434-6.006-8.434" transform="translate(-0.237 -0.041)" fill="#161615"/>
          <path id="Caminho_10913" data-name="Caminho 10913" d="M173.95,44.1H172a.564.564,0,0,1-.595-.6V28.783c0-2.625-1-3.541-3.779-3.541a29.973,29.973,0,0,0-7.439,1.114V43.5a.535.535,0,0,1-.557.6h-1.989a.565.565,0,0,1-.6-.6V26.993c0-1.59.08-2.308,2.067-2.984A32.477,32.477,0,0,1,167.7,22.7c4.734,0,6.841,1.471,6.841,5.729V43.5a.563.563,0,0,1-.594.6" transform="translate(-0.278 -0.041)" fill="#161615"/>
          <path id="Caminho_10914" data-name="Caminho 10914" d="M186.517,44.616a22.472,22.472,0,0,1-7.2-1.272c-.122-.08-.359-.161-.359-.479v-.2l.437-1.989c.041-.279.2-.438.437-.438a.368.368,0,0,1,.2.039,22.885,22.885,0,0,0,6.208,1.035c2.623,0,4.413-.837,4.413-2.944,0-2.665-1.949-2.665-4.614-3.1-2.228-.358-6.883-.8-6.883-6.2,0-5.45,4.855-6.366,8.355-6.366a24.284,24.284,0,0,1,6.445.876.5.5,0,0,1,.437.516v.08l-.357,2.148a.4.4,0,0,1-.438.356h-.119A31.809,31.809,0,0,0,188.069,26c-2.267,0-4.414.556-4.414,2.745,0,2.386,2.347,2.584,4.614,2.9,3.3.517,6.882,1.074,6.882,6.324,0,5.172-3.9,6.644-8.634,6.644" transform="translate(-0.317 -0.041)" fill="#161615"/>
          <path id="Caminho_10915" data-name="Caminho 10915" d="M208.193,44.616c-8.632,0-9.706-4.893-9.706-10.94,0-6.086,1.074-10.978,9.706-10.978s9.667,4.892,9.667,10.978c0,6.046-1.034,10.94-9.667,10.94m0-18.655c-4.852,0-5.051,2.822-5.051,7.715,0,4.852.2,7.678,5.051,7.678,4.813,0,5.011-2.826,5.011-7.678,0-4.893-.2-7.715-5.011-7.715" transform="translate(-0.352 -0.041)" fill="#161615"/>
          <path id="Caminho_10916" data-name="Caminho 10916" d="M235.362,15.444l-.28,1.988c-.08.317-.2.478-.478.478h-.12a19.547,19.547,0,0,0-3.381-.4,3.473,3.473,0,0,0-2.228.518,2.268,2.268,0,0,0-.717,1.948V23.2h5.531a.564.564,0,0,1,.6.6v2.189a.563.563,0,0,1-.6.6h-5.531V43.487a.564.564,0,0,1-.595.6H224.3a.577.577,0,0,1-.639-.6V26.581h-3.1a.563.563,0,0,1-.6-.6V23.8a.564.564,0,0,1,.6-.6h3.1V20.059c0-4.021,1.989-5.888,6.246-5.888a19.043,19.043,0,0,1,4.973.636.581.581,0,0,1,.478.557Z" transform="translate(-0.39 -0.025)" fill="#161615"/>
          <path id="Caminho_10917" data-name="Caminho 10917" d="M248.8,43.771a17.42,17.42,0,0,1-4.933.715c-4.255,0-6.4-1.71-6.4-5.967v-21c0-.439.2-.6.635-.678l3.221-.676h.16a.526.526,0,0,1,.518.6V23.2h6.047a.561.561,0,0,1,.594.595v2.19a.561.561,0,0,1-.594.595h-6.047V38.559c0,1.909.875,2.586,2.944,2.586a16.2,16.2,0,0,0,3.261-.438h.12a.5.5,0,0,1,.477.4l.4,1.948a.3.3,0,0,1,.04.161.623.623,0,0,1-.437.557" transform="translate(-0.421 -0.029)" fill="#161615"/>
          <path id="Caminho_10918" data-name="Caminho 10918" d="M75.823,56.187a5.554,5.554,0,0,1-1.9-.364c-.045-.021-.087-.044-.087-.107v-.033l.107-.418a.109.109,0,0,1,.118-.1h.055a5.315,5.315,0,0,0,1.725.31c.911,0,1.436-.288,1.436-.942,0-.889-.687-.856-1.52-.987-.526-.084-1.867-.18-1.867-1.6,0-1.383,1.233-1.672,2.176-1.672a6.749,6.749,0,0,1,1.748.227.113.113,0,0,1,.106.117v.021l-.075.472a.092.092,0,0,1-.1.085h-.021a11.166,11.166,0,0,0-1.575-.2c-.773,0-1.415.214-1.415.89,0,.728.728.814,1.395.9.964.128,2,.2,2,1.661,0,1.395-1.071,1.737-2.316,1.737" transform="translate(-0.131 -0.089)" fill="#161615"/>
          <path id="Caminho_10919" data-name="Caminho 10919" d="M86.594,56.186c-2.24,0-2.508-1.34-2.508-2.949s.268-2.958,2.508-2.958S89.1,51.62,89.1,53.237s-.258,2.949-2.509,2.949m0-5.219c-1.553,0-1.619.91-1.619,2.27S85.04,55.5,86.594,55.5s1.618-.912,1.618-2.263-.064-2.27-1.618-2.27" transform="translate(-0.149 -0.089)" fill="#161615"/>
          <path id="Caminho_10920" data-name="Caminho 10920" d="M98.618,48.668c-.011.086-.066.118-.152.118a5.386,5.386,0,0,0-1.028-.118,1.067,1.067,0,0,0-.665.151.655.655,0,0,0-.213.567v1.029h1.585a.154.154,0,0,1,.162.162v.364a.152.152,0,0,1-.162.16H96.561v4.781a.145.145,0,0,1-.153.161h-.535a.152.152,0,0,1-.162-.161V51.1h-.834a.152.152,0,0,1-.164-.16v-.364a.154.154,0,0,1,.164-.162h.834v-.942c0-1.028.505-1.492,1.555-1.492a5.55,5.55,0,0,1,1.265.164c.076.021.139.064.139.139v.01Z" transform="translate(-0.168 -0.085)" fill="#161615"/>
          <path id="Caminho_10921" data-name="Caminho 10921" d="M107.168,55.872a.126.126,0,0,1-.087.107,4.289,4.289,0,0,1-1.309.2c-1.06,0-1.564-.459-1.564-1.489V48.8c0-.086.053-.118.128-.128l.58-.149h.033c.075,0,.106.074.106.138v1.758h1.8a.151.151,0,0,1,.161.162v.364a.151.151,0,0,1-.161.16h-1.8v3.677c0,.59.322.718.879.718a4.659,4.659,0,0,0,.985-.142h.033a.126.126,0,0,1,.119.1l.1.4Z" transform="translate(-0.185 -0.086)" fill="#161615"/>
          <path id="Caminho_10922" data-name="Caminho 10922" d="M119.315,55.875a.221.221,0,0,1-.228.171H117.9a.218.218,0,0,1-.216-.171l-1.05-4.6h-.021l-1.093,4.6a.23.23,0,0,1-.227.171h-1.18a.227.227,0,0,1-.224-.171l-1.308-5.263c0-.022-.011-.032-.011-.053,0-.078.043-.141.108-.141h.631a.147.147,0,0,1,.163.141l1.083,4.865h.277l1.084-4.62a.221.221,0,0,1,.224-.172h.977a.227.227,0,0,1,.223.172l1.062,4.62h.278l1.1-4.865a.141.141,0,0,1,.149-.141h.633a.13.13,0,0,1,.129.129v.043Z" transform="translate(-0.2 -0.09)" fill="#161615"/>
          <path id="Caminho_10923" data-name="Caminho 10923" d="M130.282,56.036a7.069,7.069,0,0,1-1.393.151c-.922,0-2.456-.034-2.456-1.769,0-1.436.792-1.511,1.854-1.683l2.027-.332v-.5c0-.341-.012-.624-.386-.761a2.609,2.609,0,0,0-.976-.131,8.012,8.012,0,0,0-1.983.312c-.022,0-.042.011-.063.011a.108.108,0,0,1-.108-.086l-.1-.482V50.74a.137.137,0,0,1,.107-.128,7.476,7.476,0,0,1,2.24-.332,3.319,3.319,0,0,1,1.566.28c.545.289.557.794.557,1.3v3.078c0,.75-.15.92-.889,1.1m.042-2.959-1.971.333c-.516.1-1.042.118-1.042.964,0,1.072.879,1.147,1.588,1.147a4.594,4.594,0,0,0,1.424-.215Z" transform="translate(-0.224 -0.089)" fill="#161615"/>
          <path id="Caminho_10924" data-name="Caminho 10924" d="M140.41,51.031a7.39,7.39,0,0,0-1.885.2v4.651a.145.145,0,0,1-.153.161h-.536s-.159-.064-.159-.161V51.416c0-.471.1-.61.46-.782a5.992,5.992,0,0,1,1.948-.354h.271a.141.141,0,0,1,.15.161v.46c0,.075-.021.13-.1.13" transform="translate(-0.244 -0.089)" fill="#161615"/>
          <path id="Caminho_10925" data-name="Caminho 10925" d="M150.993,53.646c-.012.054-.086.139-.14.139H146.92a1.753,1.753,0,0,0,.331,1.2,1.877,1.877,0,0,0,1.588.516,5.15,5.15,0,0,0,1.575-.27.16.16,0,0,1,.065-.021c.042,0,.084.031.107.1l.118.408v.042c0,.054-.045.087-.107.118a5.418,5.418,0,0,1-1.845.311c-2.1,0-2.722-.976-2.722-2.949,0-1.81.364-2.958,2.486-2.958a2.213,2.213,0,0,1,2.134.954,3.892,3.892,0,0,1,.342,1.887Zm-1.018-1.78c-.193-.686-.612-.912-1.478-.912s-1.276.227-1.458.912a5.153,5.153,0,0,0-.128,1.211l3.193-.011a5.633,5.633,0,0,0-.129-1.2" transform="translate(-0.259 -0.089)" fill="#161615"/>
          <path id="Caminho_10926" data-name="Caminho 10926" d="M167.416,56.187a5.591,5.591,0,0,1-1.9-.364c-.041-.021-.084-.044-.084-.107v-.033l.107-.418a.109.109,0,0,1,.118-.1h.055a5.3,5.3,0,0,0,1.724.31c.911,0,1.435-.288,1.435-.942,0-.889-.685-.856-1.521-.987-.524-.084-1.865-.18-1.865-1.6,0-1.383,1.232-1.672,2.176-1.672a6.731,6.731,0,0,1,1.748.227.115.115,0,0,1,.107.117v.021l-.075.472a.093.093,0,0,1-.1.085h-.021a11.234,11.234,0,0,0-1.575-.2c-.774,0-1.416.214-1.416.89,0,.728.729.814,1.393.9.965.128,2,.2,2,1.661,0,1.395-1.071,1.737-2.315,1.737" transform="translate(-0.293 -0.089)" fill="#161615"/>
          <path id="Caminho_10927" data-name="Caminho 10927" d="M178.185,56.186c-2.24,0-2.508-1.34-2.508-2.949s.268-2.958,2.508-2.958,2.509,1.341,2.509,2.958-.257,2.949-2.509,2.949m0-5.219c-1.552,0-1.618.91-1.618,2.27s.066,2.263,1.618,2.263,1.619-.912,1.619-2.263-.065-2.27-1.619-2.27" transform="translate(-0.312 -0.089)" fill="#161615"/>
          <path id="Caminho_10928" data-name="Caminho 10928" d="M188.892,55.915a.107.107,0,0,1-.086.107,2.031,2.031,0,0,1-.761.127.965.965,0,0,1-1.072-1.1V48.261c0-.086.054-.117.129-.13l.579-.15h.031c.076,0,.108.076.108.14v6.9c0,.385.27.439.483.439a1.471,1.471,0,0,0,.375-.042h.053c.033,0,.065.011.075.074l.076.375c0,.022.01.033.01.044" transform="translate(-0.332 -0.085)" fill="#161615"/>
          <path id="Caminho_10929" data-name="Caminho 10929" d="M197.2,56.187c-1.886,0-2.357-.8-2.357-2.219V50.56c0-.087.053-.119.138-.14l.578-.14h.034c.076,0,.1.075.1.14v3.634c0,1.007.352,1.458,1.51,1.458,1.394,0,1.5-.688,1.5-1.491V50.56c0-.087.065-.119.14-.14l.579-.14h.031c.075,0,.109.075.109.14v3.527c0,1.061-.152,2.24-2.359,2.24" transform="translate(-0.346 -0.089)" fill="#161615"/>
          <path id="Caminho_10930" data-name="Caminho 10930" d="M209.012,55.872a.123.123,0,0,1-.086.107,4.255,4.255,0,0,1-1.307.2c-1.062,0-1.565-.459-1.565-1.489V48.8c0-.086.055-.118.129-.128l.58-.149h.031c.075,0,.109.074.109.138v1.758h1.8a.152.152,0,0,1,.162.162v.364a.152.152,0,0,1-.162.16h-1.8v3.677c0,.59.32.718.877.718a4.691,4.691,0,0,0,.987-.142h.031a.126.126,0,0,1,.118.1l.1.4Z" transform="translate(-0.365 -0.086)" fill="#161615"/>
          <path id="Caminho_10931" data-name="Caminho 10931" d="M215.813,49.45h-.524a.151.151,0,0,1-.164-.15V48.144a.155.155,0,0,1,.164-.163h.524a.153.153,0,0,1,.161.163V49.3a.149.149,0,0,1-.161.15m0,6.591h-.524a.153.153,0,0,1-.164-.161v-5.3a.153.153,0,0,1,.164-.162h.524a.152.152,0,0,1,.161.162v5.3a.151.151,0,0,1-.161.161" transform="translate(-0.381 -0.085)" fill="#161615"/>
          <path id="Caminho_10932" data-name="Caminho 10932" d="M224.917,56.186c-2.241,0-2.509-1.34-2.509-2.949s.267-2.958,2.509-2.958,2.507,1.341,2.507,2.958-.258,2.949-2.507,2.949m0-5.219c-1.556,0-1.618.91-1.618,2.27s.062,2.263,1.618,2.263,1.617-.912,1.617-2.263-.064-2.27-1.617-2.27" transform="translate(-0.395 -0.089)" fill="#161615"/>
          <path id="Caminho_10933" data-name="Caminho 10933" d="M238.259,56.046h-.526a.15.15,0,0,1-.159-.161V51.919c0-.707-.269-.952-1.018-.952a8.068,8.068,0,0,0-2.005.3v4.618a.143.143,0,0,1-.151.161h-.535a.151.151,0,0,1-.161-.161V51.437c0-.43.021-.622.558-.8a8.7,8.7,0,0,1,2.314-.354c1.276,0,1.845.4,1.845,1.544v4.061a.153.153,0,0,1-.162.161" transform="translate(-0.415 -0.089)" fill="#161615"/>
          <path id="Caminho_10934" data-name="Caminho 10934" d="M246.723,56.187a5.567,5.567,0,0,1-1.9-.364c-.044-.021-.087-.044-.087-.107v-.033l.108-.418a.109.109,0,0,1,.118-.1h.054a5.321,5.321,0,0,0,1.725.31c.911,0,1.437-.288,1.437-.942,0-.889-.687-.856-1.523-.987-.525-.084-1.865-.18-1.865-1.6,0-1.383,1.234-1.672,2.177-1.672a6.72,6.72,0,0,1,1.747.227.113.113,0,0,1,.106.117v.021l-.076.472a.091.091,0,0,1-.095.085h-.022a11.165,11.165,0,0,0-1.576-.2c-.771,0-1.413.214-1.413.89,0,.728.727.814,1.394.9.963.128,2,.2,2,1.661,0,1.395-1.071,1.737-2.316,1.737" transform="translate(-0.434 -0.089)" fill="#161615"/>
        </g>
      </g>
    </g>
  </g>
</svg>
